<svg id="图层_1" data-name="图层 1" xmlns="http://www.w3.org/2000/svg" viewBox="0 0 276.75 34.75"><defs><style>.cls-1{fill:#1d2088;}.cls-2{fill:#e60012;}.cls-3{fill:#231815;}</style></defs><title>logo</title><path class="cls-1" d="M4.56,26.68A9.9,9.9,0,0,1,23.16,22,11.19,11.19,0,1,0,8.91,34.88,9.9,9.9,0,0,1,4.56,26.68Z" transform="translate(-1 -0.53)"/><path class="cls-1" d="M41.54,27.7a8,8,0,0,1,14.94-4.16A9.58,9.58,0,0,0,47.37,17a9.48,9.48,0,0,0-4.84,1.31A9.45,9.45,0,0,0,37.69,17a9.59,9.59,0,0,0-7.48,15.61L24.49,32l-2.15,3.29H56.48L44.65,34.06A8,8,0,0,1,41.54,27.7Zm-9.69,0a8.06,8.06,0,0,1,8.06-8c.26,0,.51,0,.77,0a9.58,9.58,0,0,0,.25,14L33.8,33A8,8,0,0,1,31.85,27.7Z" transform="translate(-1 -0.53)"/><path class="cls-2" d="M19.67,35.28H9.32a97.38,97.38,0,0,0,12.54-10.1c5.49-5.41,9.64-12,6.51-13.79-2.43-1.33-9.15,2.77-9.15,2.77A13,13,0,0,0,12.08,12L43.84.53Z" transform="translate(-1 -0.53)"/><path class="cls-3" d="M64.83,12.58c.42-.2.68-.05.78.47a24.51,24.51,0,0,1-5.46,6.87q-.78.15-.63-.63A26.16,26.16,0,0,0,64.83,12.58Zm-4.53-5,3.91,3.12c.2.52.05.78-.47.78L59.68,8.37C59.47,7.85,59.68,7.59,60.3,7.59Zm1.25-5.15A42.11,42.11,0,0,1,65,5.56c.2.73,0,1-.63.78Q62.8,4.78,60.93,3.22C60.72,2.7,60.93,2.44,61.55,2.44Zm3.59.47H76.69q.61.46,0,.93H71.38v15h5.93c.52.32.52.63,0,.94H64.52c-.52-.21-.52-.52,0-.94h5.93v-15H65.14Q64.51,3.38,65.14,2.91Z" transform="translate(-1 -0.53)"/><path class="cls-3" d="M81.84,11.18c.52-.31.83-.21.93.31a12.31,12.31,0,0,1-2.49,4.68c-.63.21-.89,0-.78-.62A12.68,12.68,0,0,0,81.84,11.18Zm3.74-4.53c.31-.41.63-.41.94,0V8.21H92.6q1.73,0,1.56,1.56a36.69,36.69,0,0,1-.46,8.74A2.12,2.12,0,0,1,91,20.38a7.53,7.53,0,0,1-3-.93c-.21-.52,0-.83.47-.94,2.49,1.25,3.9,1.25,4.21,0a36.21,36.21,0,0,0,.47-8.42c.1-.63-.21-.94-.94-.94H86.52Q86.35,17.42,80,20.38c-.53-.1-.63-.41-.32-.93q5.94-2.81,5.93-10.3H81.21c-.41-.31-.41-.62,0-.94h4.37Zm7-4.37V3.84h3.75c.41.32.41.63,0,.94H92.6V6.34q-.46.63-.93,0V4.78H85.11V6.19q-.47.78-.93.15V4.78H80.12c-.42-.31-.42-.62,0-.94h4.06V2.6q.46-.63.93,0V3.84h6.56V2.28Q92.14,1.67,92.6,2.28Zm3.75,8.9a33.06,33.06,0,0,1,1.56,5.3c-.21.52-.52.58-.94.16a32.15,32.15,0,0,0-1.56-5.15C95.62,11,95.93,10.87,96.35,11.18Z" transform="translate(-1 -0.53)"/><path class="cls-3" d="M109,2V8.84a16.86,16.86,0,0,0,4.52-3.43A18.69,18.69,0,0,0,112,3.69q-.32-.78.63-.78a37.84,37.84,0,0,1,5.15,6.4c.1.62-.16.78-.78.46a21.55,21.55,0,0,0-2.66-3.58A19.06,19.06,0,0,1,107,10.71h6.71a1.38,1.38,0,0,1,1.56,1.56v6.4q.15,1.56-1.56,1.56h-8.74a1.38,1.38,0,0,1-1.56-1.56V12.11c-1.25.32-2.5.58-3.74.78-.52-.2-.58-.51-.16-.93a34.5,34.5,0,0,0,8.58-2.65V2C108.36,1.56,108.68,1.56,109,2Zm-4.84,1.09c.62-.2.88,0,.78.63a19.81,19.81,0,0,1-4.52,5.46q-.94.15-.63-.78A16.13,16.13,0,0,0,104.15,3.06Zm9.21,8.59h-8.43a.55.55,0,0,0-.62.62v1.25h10v-.94C114.4,12,114.08,11.65,113.36,11.65Zm.93,2.81h-10v1.87h10Zm0,2.8h-10v1.1c0,.72.31,1,.93.93h8.12c.72.11,1-.21.93-.93Z" transform="translate(-1 -0.53)"/><path class="cls-3" d="M137.54,19.6c.42.32.42.63,0,.94h-7a10,10,0,0,1-7.64-3.28,17.06,17.06,0,0,1-2.81,3.44q-.78.15-.63-.63a19.17,19.17,0,0,0,2.81-3.59,12,12,0,0,1-2-4.68c.21-.52.52-.57.94-.15a13.85,13.85,0,0,0,1.56,3.9A15.3,15.3,0,0,0,124,11.33q.15-.78-.78-.78h-1.41c-1.56.11-1.92-.57-1.09-2a23,23,0,0,0,2.65-3.91c.32-.41.16-.62-.46-.62h-3c-.42-.31-.42-.62,0-.94h2.81c1.45,0,2,.47,1.72,1.41a18.94,18.94,0,0,1-2.81,4.37c-.42.62-.26.88.46.78h1.1q1.88,0,1.71,1.56a18.72,18.72,0,0,1-1.56,5.3,9.39,9.39,0,0,0,7.18,3.12ZM130.21,2.28q.47-.61.93,0V3.69h3c1.35,0,1.92.57,1.72,1.72v1.4h1.71c.42.31.42.62,0,.94h-1.71V9.46q.15,1.56-1.56,1.41h-3.13v1.87h5c.41.31.41.62,0,.94h-5v1.87h5.62q.63.46,0,.93h-5.62v2.34q-.46.63-.93,0V16.48H124.9q-.62-.46,0-.93h5.31V13.68h-4.68c-.42-.32-.42-.63,0-.94h4.68V10.87h-4.37c-.42-.32-.42-.63,0-.94h4.37V7.75h-5c-.52-.32-.52-.63,0-.94h5V4.62h-4.37q-.78-.47,0-.93h4.37ZM134,4.62h-2.81V6.81h3.75V5.56C135,4.94,134.68,4.62,134,4.62Zm.94,3.13h-3.75V9.93H134c.73.1,1-.21.94-.94Z" transform="translate(-1 -0.53)"/><path class="cls-3" d="M139.57,8.06h2.19q1.71,0,1.56,1.56v8.11q0,1.1,2.34-2.18c.62-.31.88-.11.78.62a9.58,9.58,0,0,1-3,3c-.73.31-1.09.05-1.09-.78V9.93c.1-.62-.21-.94-.94-.94h-1.87Q138.94,8.52,139.57,8.06Zm1.87-5a32.27,32.27,0,0,1,2.66,3.13c.1.62-.16.78-.78.46l-2.66-3C140.66,3.06,140.92,2.86,141.44,3.06Zm6.24,6.87h6.4c1.25,0,1.77.57,1.56,1.72a12.6,12.6,0,0,1-3.12,5,16.89,16.89,0,0,0,4.84,2.65c.41.52.31.83-.31.94a19.45,19.45,0,0,1-5.31-3,19.12,19.12,0,0,1-5.46,3c-.52-.11-.62-.42-.31-.94a16.08,16.08,0,0,0,5-2.65,13.21,13.21,0,0,1-3-5.77h-.32C147.27,10.55,147.27,10.24,147.68,9.93Zm2.19-7.49H153q1.71,0,1.56,1.56V7.43c0,.73.31,1,.94.94h1.09c.52.31.52.62,0,.94h-1.41c-1,.1-1.56-.47-1.56-1.72V4.31q.16-.93-.93-.93h-2.5a.82.82,0,0,0-.93.93v.78a4.44,4.44,0,0,1-2.35,4.22c-.62,0-.78-.26-.46-.78a3.55,3.55,0,0,0,1.87-3.44V4A1.38,1.38,0,0,1,149.87,2.44ZM151.74,16a10.09,10.09,0,0,0,2.81-4.22q.31-.93-.78-.93h-4.84A11.41,11.41,0,0,0,151.74,16Z" transform="translate(-1 -0.53)"/><path class="cls-3" d="M160,14.61h8.12v-.93q.47-.63.93,0v.93h8c.52.31.52.63,0,.94h-6.55a20.13,20.13,0,0,0,6.39,3.9c.52.52.42.83-.31.93a20.7,20.7,0,0,1-7.49-4.83v4.83q-.47.95-.93,0V15.86a23.22,23.22,0,0,1-8.27,4.52c-.63-.1-.73-.41-.32-.93a23,23,0,0,0,7.49-3.9h-7C159.59,15.34,159.59,15,160,14.61ZM164.07,2c.62-.31.88-.15.78.47l-1.41,1.87h5.15a12.37,12.37,0,0,0-.78-1.87c.11-.62.42-.73.94-.31.31.62.62,1.35.94,2.18h6.24c.52.31.52.63,0,.94h-6.87V6.81h6.87c.52.31.52.62,0,.94h-6.87V9.46h6.87c.52.31.52.63,0,.94h-6.87v1.71h7.49c.52.32.52.63,0,.94h-14v.63c-.31.52-.63.52-.94,0V6.34L160,7.75c-.62.1-.83-.16-.62-.78A26.13,26.13,0,0,0,164.07,2Zm4.06,3.28h-5.62V6.81h5.62Zm0,2.5h-5.62V9.46h5.62Zm0,2.65h-5.62v1.71h5.62Z" transform="translate(-1 -0.53)"/><path class="cls-3" d="M181.86,2.75h13.26q1.71,0,1.56,1.56V18.67q.15,1.71-1.56,1.56H181.86q-1.56.15-1.56-1.56V4.31A1.38,1.38,0,0,1,181.86,2.75Zm12.95.94H182.17a.83.83,0,0,0-.94.93V18.2c0,.83.31,1.2.94,1.09h12.64c.73.11,1-.21.93-.93V4.62Q195.9,3.69,194.81,3.69Zm-4.53.93V7.43h4.37c.42.32.42.63,0,.94h-4.37V17q.32,2.65-4.37,1.09c-.21-.52,0-.83.47-.93,2.19.83,3.17.78,3-.16V10.09a19.1,19.1,0,0,1-6.24,6.55q-.95.15-.63-.78a20.8,20.8,0,0,0,6.71-7.49h-6.71c-.42-.31-.42-.62,0-.94h6.87V4.62Q189.82,3.86,190.28,4.62Z" transform="translate(-1 -0.53)"/><path class="cls-3" d="M207.13,2.13c.52-.21.79,0,.79.47L207.13,4h10c.42.31.42.62,0,.94H206.67q-1.41,1.71-2.19,2.49H214q1.71,0,1.56,1.56V18.2c.21,1.35-.47,2.08-2,2.18a9.72,9.72,0,0,1-2.65-.62c-.31-.42-.21-.73.31-.94a5.9,5.9,0,0,0,2.19.63c.93,0,1.35-.42,1.24-1.25V15.86H203.39v4.21c-.31.52-.62.52-.94,0V9.15A12.29,12.29,0,0,1,199.33,11c-.62,0-.78-.26-.47-.78a20,20,0,0,0,6.56-5.3h-5.78c-.52-.32-.52-.63,0-.94h6.25Zm7.49,7.18c.11-.63-.2-.94-.93-.94h-9.36a.83.83,0,0,0-.94.94v1.87h11.23Zm0,2.8H203.39v2.81h11.23Z" transform="translate(-1 -0.53)"/><path class="cls-3" d="M221.33,2.6h1.88q1.71,0,1.56,1.56a17.87,17.87,0,0,1-1.1,3.9.8.8,0,0,0,0,.93c1.36,2.29,1.77,4.11,1.25,5.47-.41.93-1.82,1.19-4.21.78v4.83c-.31.42-.62.42-.94,0V4.16A1.38,1.38,0,0,1,221.33,2.6Zm1.56.93h-1.24a.83.83,0,0,0-.94.94V14.3c2.29.42,3.43.26,3.43-.47.31-1-.1-2.5-1.25-4.37a1.61,1.61,0,0,1-.15-1.56,14.66,14.66,0,0,0,1.09-3.43C224,3.84,223.73,3.53,222.89,3.53Zm5-.93h6.24q1.71,0,1.56,1.56v5.93q.15,1.71-1.56,1.56h-3.75a9,9,0,0,0,1.72,3.74,17.9,17.9,0,0,0,3.75-3c.51,0,.72.26.62.78a19.63,19.63,0,0,1-3.75,3,13.55,13.55,0,0,0,4.37,3.28c.32.52.21.83-.31.93q-6.09-3-7.33-8.73h-2.19v6.86q0,.94.63.78a14.14,14.14,0,0,0,3.43-.93c.52.1.62.41.31.93a14.26,14.26,0,0,1-4.37,1.09q-.93,0-.93-1.56V4.16A1.38,1.38,0,0,1,227.89,2.6Zm5.93.93H228.2a.83.83,0,0,0-.94.94V6.65h7.49V4.47C234.86,3.84,234.54,3.53,233.82,3.53Zm.93,4.06h-7.49v3.12h6.56c.72.1,1-.21.93-.94Z" transform="translate(-1 -0.53)"/><path class="cls-3" d="M246,3.22A20.76,20.76,0,0,1,239.43,12c-.52,0-.73-.21-.62-.63a20.6,20.6,0,0,0,6.24-8.42C245.57,2.49,245.88,2.6,246,3.22Zm2.18,5.93a88.13,88.13,0,0,1-5,8.58c-.42.52-.26.73.47.63q4.51-.32,10.61-.94-1.09-2-3-5.15c-.1-.62.16-.78.78-.47a58,58,0,0,1,4.37,8c0,.52-.26.68-.78.47l-.93-1.87c-4.48.41-8.27.72-11.4.93-1.45.11-1.92-.36-1.4-1.4a70.78,70.78,0,0,0,5.46-9.21C247.91,8.37,248.17,8.53,248.17,9.15ZM251,2.44a25.69,25.69,0,0,0,6.55,8.89c.21.63,0,.84-.62.63A22.64,22.64,0,0,1,250,2.75C250.15,2.13,250.46,2,251,2.44Z" transform="translate(-1 -0.53)"/><path class="cls-3" d="M259.41,6h14.35c.42.31.42.62,0,.94H259.41C259,6.76,259,6.45,259.41,6ZM261,2.6h13.57c1.25,0,1.82.62,1.72,1.87v14c.21,1.46-.89,2.08-3.28,1.87a12,12,0,0,1-3.43-.93c-.21-.52-.05-.83.47-.94q5.61,1.88,5.3-.15V4.94c.11-.94-.26-1.41-1.09-1.41H261Q260.34,3.07,261,2.6Zm1.25,6.86H271q1.73,0,1.56,1.56v4.37q.17,1.72-1.56,1.56h-8.73c-1.05.11-1.57-.47-1.57-1.71V11A1.38,1.38,0,0,1,262.22,9.46Zm8.42.94h-8.11a.83.83,0,0,0-.94.93v3.75c0,.73.31,1,.94.94h8.11c.73.1,1-.21.94-.94V11.33C271.68,10.71,271.37,10.4,270.64,10.4Z" transform="translate(-1 -0.53)"/><path class="cls-3" d="M64.38,31.67l.9.22a3,3,0,0,1-1,1.69,2.79,2.79,0,0,1-1.78.57,3.17,3.17,0,0,1-1.78-.44,2.82,2.82,0,0,1-1.05-1.29,4.58,4.58,0,0,1-.36-1.82,4,4,0,0,1,.41-1.84,2.83,2.83,0,0,1,1.15-1.2,3.37,3.37,0,0,1,1.64-.4,2.8,2.8,0,0,1,1.71.51,2.69,2.69,0,0,1,1,1.46l-.88.21a2.06,2.06,0,0,0-.68-1.08,1.81,1.81,0,0,0-1.13-.34,2.17,2.17,0,0,0-1.3.38,2,2,0,0,0-.74,1,4.41,4.41,0,0,0,0,2.81,1.88,1.88,0,0,0,.78,1,2.24,2.24,0,0,0,1.15.32A2,2,0,0,0,63.68,33,2.22,2.22,0,0,0,64.38,31.67Z" transform="translate(-1 -0.53)"/><path class="cls-3" d="M66.41,34V27.27h.89v2.78h3.52V27.27h.9V34h-.9V30.85H67.3V34Z" transform="translate(-1 -0.53)"/><path class="cls-3" d="M73.36,34V27.27h.9V34Z" transform="translate(-1 -0.53)"/><path class="cls-3" d="M75.83,34V27.27h.91l3.56,5.32V27.27h.86V34h-.92l-3.56-5.32V34Z" transform="translate(-1 -0.53)"/><path class="cls-3" d="M81.92,34l2.6-6.77h1L88.25,34h-1L86.44,32H83.61L82.87,34Zm2-2.78h2.3l-.71-1.87A14.86,14.86,0,0,1,85,28a10,10,0,0,1-.36,1.3Z" transform="translate(-1 -0.53)"/><path class="cls-3" d="M90.62,32.12l.8-.11a1.74,1.74,0,0,0,.3,1.06.91.91,0,0,0,.71.29A1.07,1.07,0,0,0,93,33.2a.74.74,0,0,0,.34-.42,2.9,2.9,0,0,0,.09-.85V27.27h.9v4.61a3.3,3.3,0,0,1-.21,1.32,1.45,1.45,0,0,1-.65.71,2.16,2.16,0,0,1-1,.24,1.78,1.78,0,0,1-1.37-.51A2.1,2.1,0,0,1,90.62,32.12Z" transform="translate(-1 -0.53)"/><path class="cls-3" d="M96,34V27.27h.9V34Z" transform="translate(-1 -0.53)"/><path class="cls-3" d="M97.68,34l2.6-6.77h1L104,34h-1L102.21,32H99.38L98.64,34Zm2-2.78h2.29l-.71-1.87q-.31-.86-.48-1.41a7.62,7.62,0,0,1-.36,1.3Z" transform="translate(-1 -0.53)"/><path class="cls-3" d="M104.72,34V27.27h.92l3.56,5.32V27.27h.86V34h-.92l-3.56-5.32V34Z" transform="translate(-1 -0.53)"/><path class="cls-3" d="M114.73,31.38v-.79h2.86V33.1a5.11,5.11,0,0,1-1.36.79,4,4,0,0,1-1.44.26,3.89,3.89,0,0,1-1.81-.42,2.89,2.89,0,0,1-1.23-1.24,3.85,3.85,0,0,1-.42-1.8,4.15,4.15,0,0,1,.42-1.85,2.72,2.72,0,0,1,1.19-1.27,3.65,3.65,0,0,1,1.78-.41,3.75,3.75,0,0,1,1.33.23,2.11,2.11,0,0,1,.93.67,2.74,2.74,0,0,1,.51,1.1l-.8.23a2.73,2.73,0,0,0-.38-.82,1.63,1.63,0,0,0-.65-.47,2.34,2.34,0,0,0-.93-.18,2.61,2.61,0,0,0-1.06.19,2,2,0,0,0-.73.49,2.36,2.36,0,0,0-.42.67,3.4,3.4,0,0,0-.26,1.36,3.29,3.29,0,0,0,.31,1.52,2,2,0,0,0,.91.9,2.75,2.75,0,0,0,1.26.3,3,3,0,0,0,1.14-.23,3.17,3.17,0,0,0,.84-.47V31.38Z" transform="translate(-1 -0.53)"/><path class="cls-3" d="M118.61,31.86l.84-.07a1.89,1.89,0,0,0,.28.83,1.52,1.52,0,0,0,.69.53,2.59,2.59,0,0,0,1,.2,2.52,2.52,0,0,0,.91-.15,1.23,1.23,0,0,0,.58-.42,1,1,0,0,0,.19-.58.87.87,0,0,0-.18-.55,1.3,1.3,0,0,0-.61-.4,12.13,12.13,0,0,0-1.2-.33,5.61,5.61,0,0,1-1.31-.43,1.8,1.8,0,0,1-.72-.63,1.53,1.53,0,0,1-.24-.84,1.77,1.77,0,0,1,.29-1,1.8,1.8,0,0,1,.85-.67,3.11,3.11,0,0,1,1.24-.23,3.47,3.47,0,0,1,1.33.24,1.9,1.9,0,0,1,.88.71,2,2,0,0,1,.33,1.07l-.85.06a1.45,1.45,0,0,0-.47-1,1.82,1.82,0,0,0-1.18-.32,1.91,1.91,0,0,0-1.19.29.92.92,0,0,0-.37.72.77.77,0,0,0,.27.6,3.41,3.41,0,0,0,1.35.48,8.64,8.64,0,0,1,1.49.44,2,2,0,0,1,.88.69,1.7,1.7,0,0,1,.28,1,1.9,1.9,0,0,1-.31,1,2.11,2.11,0,0,1-.89.74,3.05,3.05,0,0,1-1.3.26,3.84,3.84,0,0,1-1.54-.26,2.17,2.17,0,0,1-1-.81A2.31,2.31,0,0,1,118.61,31.86Z" transform="translate(-1 -0.53)"/><path class="cls-3" d="M129.66,27.27h.9v3.91a4.72,4.72,0,0,1-.23,1.62,2,2,0,0,1-.84,1,3,3,0,0,1-1.58.37,3.21,3.21,0,0,1-1.55-.32,1.91,1.91,0,0,1-.87-.95,4.6,4.6,0,0,1-.26-1.7V27.27h.9v3.91a3.85,3.85,0,0,0,.16,1.3,1.23,1.23,0,0,0,.57.64,1.93,1.93,0,0,0,1,.23,1.86,1.86,0,0,0,1.41-.45,2.58,2.58,0,0,0,.42-1.72Z" transform="translate(-1 -0.53)"/><path class="cls-3" d="M139.5,31.67l.9.22a3.09,3.09,0,0,1-1,1.69,2.84,2.84,0,0,1-1.79.57,3.17,3.17,0,0,1-1.78-.44,2.82,2.82,0,0,1-1-1.29,4.76,4.76,0,0,1-.35-1.82,4,4,0,0,1,.4-1.84,2.83,2.83,0,0,1,1.15-1.2,3.37,3.37,0,0,1,1.64-.4,2.8,2.8,0,0,1,1.71.51,2.69,2.69,0,0,1,1,1.46l-.88.21a2,2,0,0,0-.68-1.08,1.81,1.81,0,0,0-1.13-.34,2.17,2.17,0,0,0-1.3.38,2,2,0,0,0-.74,1,4.41,4.41,0,0,0,0,2.81,1.88,1.88,0,0,0,.78,1,2.24,2.24,0,0,0,1.15.32A2,2,0,0,0,138.8,33,2.16,2.16,0,0,0,139.5,31.67Z" transform="translate(-1 -0.53)"/><path class="cls-3" d="M141.23,30.74a3.67,3.67,0,0,1,.91-2.64,3.08,3.08,0,0,1,2.33-1,3.21,3.21,0,0,1,1.69.45,3,3,0,0,1,1.15,1.25,4.08,4.08,0,0,1,.39,1.81,4.12,4.12,0,0,1-.41,1.85,2.86,2.86,0,0,1-1.18,1.23,3.35,3.35,0,0,1-1.64.41,3.17,3.17,0,0,1-1.71-.46,2.9,2.9,0,0,1-1.14-1.26A3.78,3.78,0,0,1,141.23,30.74Zm.92,0a2.7,2.7,0,0,0,.66,1.92,2.3,2.3,0,0,0,3.32,0,2.92,2.92,0,0,0,.65-2,3.4,3.4,0,0,0-.28-1.44,2.2,2.2,0,0,0-.82-1,2.33,2.33,0,0,0-2.84.32A2.89,2.89,0,0,0,142.15,30.76Z" transform="translate(-1 -0.53)"/><path class="cls-3" d="M148.85,34V27.27h.92l3.55,5.32V27.27h.86V34h-.92l-3.55-5.32V34Z" transform="translate(-1 -0.53)"/><path class="cls-3" d="M155.38,31.86l.84-.07a1.89,1.89,0,0,0,.28.83,1.54,1.54,0,0,0,.68.53,2.68,2.68,0,0,0,1,.2,2.55,2.55,0,0,0,.91-.15,1.23,1.23,0,0,0,.58-.42,1,1,0,0,0,.19-.58.87.87,0,0,0-.18-.55,1.3,1.3,0,0,0-.61-.4,11.79,11.79,0,0,0-1.21-.33,5.66,5.66,0,0,1-1.3-.43,1.8,1.8,0,0,1-.72-.63,1.53,1.53,0,0,1-.24-.84,1.69,1.69,0,0,1,.29-1,1.8,1.8,0,0,1,.85-.67,3.08,3.08,0,0,1,1.24-.23,3.47,3.47,0,0,1,1.33.24,2,2,0,0,1,.88.71,2,2,0,0,1,.33,1.07l-.86.06a1.4,1.4,0,0,0-.46-1,1.82,1.82,0,0,0-1.18-.32,1.91,1.91,0,0,0-1.19.29.92.92,0,0,0-.37.72.79.79,0,0,0,.26.6,3.55,3.55,0,0,0,1.35.48,8.54,8.54,0,0,1,1.5.44,2,2,0,0,1,.88.69,1.7,1.7,0,0,1,.28,1,1.9,1.9,0,0,1-.31,1,2.11,2.11,0,0,1-.89.74,3.07,3.07,0,0,1-1.31.26,3.82,3.82,0,0,1-1.53-.26,2.17,2.17,0,0,1-1-.81A2.31,2.31,0,0,1,155.38,31.86Z" transform="translate(-1 -0.53)"/><path class="cls-3" d="M163.71,34v-6h-2.23v-.8h5.37v.8h-2.24v6Z" transform="translate(-1 -0.53)"/><path class="cls-3" d="M167.78,34V27.27h3a4.11,4.11,0,0,1,1.38.18,1.57,1.57,0,0,1,.75.65,1.91,1.91,0,0,1,.28,1,1.7,1.7,0,0,1-.47,1.21,2.36,2.36,0,0,1-1.44.63,2.1,2.1,0,0,1,.54.34,5,5,0,0,1,.75.9L173.74,34h-1.12l-.9-1.41a10.31,10.31,0,0,0-.65-.93,1.72,1.72,0,0,0-.45-.45,1.14,1.14,0,0,0-.41-.18,2,2,0,0,0-.5,0h-1v3Zm.89-3.78h1.93a2.74,2.74,0,0,0,1-.13,1,1,0,0,0,.53-.4,1.11,1.11,0,0,0,.18-.61,1,1,0,0,0-.35-.79,1.62,1.62,0,0,0-1.1-.31h-2.15Z" transform="translate(-1 -0.53)"/><path class="cls-3" d="M179,27.27h.9v3.91a4.72,4.72,0,0,1-.23,1.62,2,2,0,0,1-.83,1,3,3,0,0,1-1.59.37,3.21,3.21,0,0,1-1.55-.32,1.91,1.91,0,0,1-.87-.95,4.62,4.62,0,0,1-.25-1.7V27.27h.89v3.91a3.8,3.8,0,0,0,.17,1.3,1.17,1.17,0,0,0,.56.64,2,2,0,0,0,1,.23,1.85,1.85,0,0,0,1.4-.45,2.58,2.58,0,0,0,.42-1.72Z" transform="translate(-1 -0.53)"/><path class="cls-3" d="M186.25,31.67l.89.22a3,3,0,0,1-1,1.69,2.82,2.82,0,0,1-1.79.57,3.2,3.2,0,0,1-1.78-.44,2.86,2.86,0,0,1-1-1.29,4.58,4.58,0,0,1-.36-1.82,4,4,0,0,1,.41-1.84,2.83,2.83,0,0,1,1.15-1.2,3.35,3.35,0,0,1,1.64-.4,2.79,2.79,0,0,1,1.7.51,2.66,2.66,0,0,1,1,1.46l-.88.21a2.07,2.07,0,0,0-.69-1.08,1.76,1.76,0,0,0-1.12-.34,2.21,2.21,0,0,0-1.31.38,1.94,1.94,0,0,0-.73,1,4.41,4.41,0,0,0,0,2.81,1.83,1.83,0,0,0,.78,1,2.22,2.22,0,0,0,1.15.32,1.92,1.92,0,0,0,1.27-.44A2.17,2.17,0,0,0,186.25,31.67Z" transform="translate(-1 -0.53)"/><path class="cls-3" d="M190,34v-6h-2.23v-.8h5.36v.8h-2.23v6Z" transform="translate(-1 -0.53)"/><path class="cls-3" d="M194.17,34V27.27h.9V34Z" transform="translate(-1 -0.53)"/><path class="cls-3" d="M196.38,30.74a3.71,3.71,0,0,1,.9-2.64,3.09,3.09,0,0,1,2.34-1,3.24,3.24,0,0,1,1.69.45,2.88,2.88,0,0,1,1.14,1.25,4,4,0,0,1,.4,1.81,4,4,0,0,1-.42,1.85,2.84,2.84,0,0,1-1.17,1.23,3.37,3.37,0,0,1-1.65.41,3.16,3.16,0,0,1-1.7-.46,2.86,2.86,0,0,1-1.15-1.26A3.91,3.91,0,0,1,196.38,30.74Zm.92,0a2.7,2.7,0,0,0,.66,1.92,2.28,2.28,0,0,0,3.31,0,2.87,2.87,0,0,0,.66-2,3.56,3.56,0,0,0-.28-1.44,2.2,2.2,0,0,0-.82-1,2.33,2.33,0,0,0-2.84.32A2.89,2.89,0,0,0,197.3,30.76Z" transform="translate(-1 -0.53)"/><path class="cls-3" d="M204,34V27.27h.92l3.56,5.32V27.27h.86V34h-.92l-3.56-5.32V34Z" transform="translate(-1 -0.53)"/><path class="cls-3" d="M216.62,31.38v-.79h2.87V33.1a5.11,5.11,0,0,1-1.36.79,4,4,0,0,1-1.44.26,3.86,3.86,0,0,1-1.81-.42,2.78,2.78,0,0,1-1.23-1.24,3.85,3.85,0,0,1-.42-1.8,4.28,4.28,0,0,1,.41-1.85,2.82,2.82,0,0,1,1.19-1.27,4,4,0,0,1,3.12-.18,2.24,2.24,0,0,1,.93.67,3,3,0,0,1,.51,1.1l-.81.23a2.51,2.51,0,0,0-.38-.82,1.6,1.6,0,0,0-.64-.47,2.35,2.35,0,0,0-.94-.18,2.68,2.68,0,0,0-1.06.19,1.91,1.91,0,0,0-.72.49,2.39,2.39,0,0,0-.43.67,3.58,3.58,0,0,0-.26,1.36,3.29,3.29,0,0,0,.32,1.52,2,2,0,0,0,.9.9,2.79,2.79,0,0,0,1.27.3,2.93,2.93,0,0,0,1.13-.23,3.17,3.17,0,0,0,.84-.47V31.38Z" transform="translate(-1 -0.53)"/><path class="cls-3" d="M220.83,34V27.27h3a4,4,0,0,1,1.37.18,1.48,1.48,0,0,1,.75.65,1.92,1.92,0,0,1,.29,1,1.7,1.7,0,0,1-.47,1.21,2.36,2.36,0,0,1-1.44.63,2.1,2.1,0,0,1,.54.34,4.56,4.56,0,0,1,.74.9L226.79,34h-1.13l-.89-1.41a10.31,10.31,0,0,0-.65-.93,1.88,1.88,0,0,0-.45-.45,1.22,1.22,0,0,0-.41-.18,2,2,0,0,0-.5,0h-1v3Zm.89-3.78h1.93a2.77,2.77,0,0,0,1-.13,1,1,0,0,0,.52-.4,1.11,1.11,0,0,0,.18-.61,1,1,0,0,0-.35-.79,1.61,1.61,0,0,0-1.1-.31h-2.14Z" transform="translate(-1 -0.53)"/><path class="cls-3" d="M227.37,30.74a3.71,3.71,0,0,1,.9-2.64,3.09,3.09,0,0,1,2.34-1,3.24,3.24,0,0,1,1.69.45,2.88,2.88,0,0,1,1.14,1.25,4,4,0,0,1,.4,1.81,4,4,0,0,1-.42,1.85,2.84,2.84,0,0,1-1.17,1.23,3.37,3.37,0,0,1-1.65.41,3.22,3.22,0,0,1-1.71-.46,2.9,2.9,0,0,1-1.14-1.26A3.91,3.91,0,0,1,227.37,30.74Zm.92,0a2.7,2.7,0,0,0,.66,1.92,2.28,2.28,0,0,0,3.31,0,2.87,2.87,0,0,0,.66-2,3.56,3.56,0,0,0-.28-1.44,2.2,2.2,0,0,0-.82-1,2.33,2.33,0,0,0-2.84.32A2.89,2.89,0,0,0,228.29,30.76Z" transform="translate(-1 -0.53)"/><path class="cls-3" d="M239.43,27.27h.9v3.91a4.72,4.72,0,0,1-.23,1.62,2,2,0,0,1-.83,1,3,3,0,0,1-1.59.37,3.21,3.21,0,0,1-1.55-.32,1.89,1.89,0,0,1-.86-.95,4.4,4.4,0,0,1-.26-1.7V27.27h.89v3.91a3.8,3.8,0,0,0,.17,1.3,1.21,1.21,0,0,0,.56.64,2,2,0,0,0,1,.23,1.85,1.85,0,0,0,1.4-.45,2.58,2.58,0,0,0,.42-1.72Z" transform="translate(-1 -0.53)"/><path class="cls-3" d="M241.82,34V27.27h2.55a5.36,5.36,0,0,1,1,.07,2.1,2.1,0,0,1,.84.31,1.78,1.78,0,0,1,.54.66,2,2,0,0,1,.21.92,2.12,2.12,0,0,1-.55,1.46,2.64,2.64,0,0,1-2,.6h-1.73V34Zm.9-3.55h1.75a1.89,1.89,0,0,0,1.23-.32,1.17,1.17,0,0,0,.36-.91,1.23,1.23,0,0,0-.21-.73,1,1,0,0,0-.57-.4,3.8,3.8,0,0,0-.83-.06h-1.73Z" transform="translate(-1 -0.53)"/><path class="cls-3" d="M255.41,31.67l.9.22a3,3,0,0,1-1,1.69,2.8,2.8,0,0,1-1.79.57,3.22,3.22,0,0,1-1.78-.44,2.86,2.86,0,0,1-1-1.29,4.58,4.58,0,0,1-.36-1.82,4,4,0,0,1,.41-1.84,2.83,2.83,0,0,1,1.15-1.2,3.35,3.35,0,0,1,1.64-.4,2.82,2.82,0,0,1,1.71.51,2.69,2.69,0,0,1,1,1.46l-.88.21a2.12,2.12,0,0,0-.68-1.08,1.81,1.81,0,0,0-1.13-.34,2.17,2.17,0,0,0-1.3.38,2,2,0,0,0-.74,1,4.41,4.41,0,0,0,0,2.81,1.88,1.88,0,0,0,.78,1,2.24,2.24,0,0,0,1.15.32A1.9,1.9,0,0,0,254.7,33,2.17,2.17,0,0,0,255.41,31.67Z" transform="translate(-1 -0.53)"/><path class="cls-3" d="M257.14,30.74a3.71,3.71,0,0,1,.9-2.64,3.1,3.1,0,0,1,2.34-1,3.24,3.24,0,0,1,1.69.45,2.88,2.88,0,0,1,1.14,1.25,4,4,0,0,1,.4,1.81,4,4,0,0,1-.42,1.85A2.84,2.84,0,0,1,262,33.74a3.37,3.37,0,0,1-1.65.41,3.16,3.16,0,0,1-1.7-.46,2.79,2.79,0,0,1-1.14-1.26A3.78,3.78,0,0,1,257.14,30.74Zm.92,0a2.7,2.7,0,0,0,.66,1.92,2.28,2.28,0,0,0,3.31,0,2.87,2.87,0,0,0,.66-2,3.56,3.56,0,0,0-.28-1.44,2.2,2.2,0,0,0-.82-1,2.33,2.33,0,0,0-2.84.32A2.89,2.89,0,0,0,258.06,30.76Z" transform="translate(-1 -0.53)"/><path class="cls-3" d="M264.78,34V27.27h3a4,4,0,0,1,1.37.18,1.55,1.55,0,0,1,.76.65,2,2,0,0,1,.28,1,1.7,1.7,0,0,1-.47,1.21,2.36,2.36,0,0,1-1.44.63,2.1,2.1,0,0,1,.54.34,4.56,4.56,0,0,1,.74.9L270.74,34h-1.12l-.9-1.41a10.31,10.31,0,0,0-.65-.93,1.88,1.88,0,0,0-.45-.45,1.14,1.14,0,0,0-.41-.18,2,2,0,0,0-.5,0h-1v3Zm.89-3.78h1.93a2.74,2.74,0,0,0,1-.13,1,1,0,0,0,.52-.4,1.11,1.11,0,0,0,.18-.61,1,1,0,0,0-.34-.79,1.62,1.62,0,0,0-1.1-.31h-2.15Z" transform="translate(-1 -0.53)"/><path class="cls-3" d="M271.59,34V27.27h2.55a5.36,5.36,0,0,1,1,.07,2,2,0,0,1,.84.31,1.78,1.78,0,0,1,.54.66,2,2,0,0,1,.21.92,2.12,2.12,0,0,1-.55,1.46,2.64,2.64,0,0,1-2,.6h-1.73V34Zm.9-3.55h1.75a1.87,1.87,0,0,0,1.23-.32,1.17,1.17,0,0,0,.36-.91,1.23,1.23,0,0,0-.21-.73,1,1,0,0,0-.57-.4,3.8,3.8,0,0,0-.83-.06h-1.73Z" transform="translate(-1 -0.53)"/><path class="cls-3" d="M276.81,34v-.95h.94V34Z" transform="translate(-1 -0.53)"/></svg>