<svg xmlns="http://www.w3.org/2000/svg" viewBox="0 0 300 126.25"><defs><style>.cls-1{fill:#aa182c;}.cls-2{fill:#323e48;}</style></defs><g id="Layer_2" data-name="Layer 2"><g id="Layer_1-2" data-name="Layer 1"><path class="cls-1" d="M.06,84.88V2.41h22.6V33.85H65V2.41h22.6V84.88H65V48.07H22.66V84.88Z"/><path class="cls-1" d="M125.84,59.43q1.05,5.64,4.15,8.45Q135.64,73,149.37,73a54,54,0,0,0,13.35-1.34q9.72-2.57,9.72-9.57c0-2.72-1.58-4.83-4.76-6.32s-8.22-2.74-15.11-3.86l-11.79-2Q123.4,47,116.9,43.59q-11-5.7-11-17.85,0-11.08,10.77-18.41T148.29,0Q165.72,0,178,6.91T190.91,27H169.05q-.6-7.44-8.79-10.57a38.43,38.43,0,0,0-13.55-2.07q-9,0-14.39,2.68T127,24.51c0,2.95,1.76,5.15,5.3,6.6q3.41,1.45,14.46,3.42l19.11,3.41q12.56,2.23,18.83,6,9.73,5.82,9.73,16.85,0,11.31-11.53,18.77T150.26,87q-21.49,0-33.81-7.36T104.13,59.43Z"/><path class="cls-2" d="M291.53,11.19a17.66,17.66,0,0,1,5,12.59,15.64,15.64,0,0,1-5,12.15,26.86,26.86,0,0,1-8.3,4.7q8.32,2.29,12.57,7.27A18,18,0,0,1,300,60a20,20,0,0,1-4.84,13.15,26.67,26.67,0,0,1-7.72,6.5,35.63,35.63,0,0,1-12.29,4.14,99.77,99.77,0,0,1-15.39,1.11H210.7V2.41h52.62Q283.22,2.64,291.53,11.19Zm-59.11,5.54V34.92h26.46a27.49,27.49,0,0,0,11.51-2.05q4.42-2,4.42-7.24,0-5.76-5.84-7.61a53.25,53.25,0,0,0-12.87-1.29Zm0,31.84v22h26.43q7.08,0,11-1.46Q277,66.42,277,58.81q0-6.44-6.94-8.84a35.61,35.61,0,0,0-10.88-1.4Z"/><rect class="cls-2" y="93.43" width="299.94" height="4.97"/><path class="cls-2" d="M11.09,119.06H3.57v6.72H1.67v-14.7h1.9v6.31h7.52v-6.31H13v14.7h-1.9Z"/><path class="cls-2" d="M31.73,111.08h2.1l-3.75,14.7H28l-3.37-12-3.31,12H19.24l-3.71-14.7h2.1l2.72,11.84,3.29-11.84h2L29,122.92Z"/><path class="cls-2" d="M36,125.78H34l5.34-14.7h2.32l5.16,14.7H44.72l-1.5-4.4H37.59Zm2.08-6h4.56l-2.16-6.43Z"/><path class="cls-2" d="M64,115.37a2.41,2.41,0,0,0-1.3-2.38,4.11,4.11,0,0,0-2.45-.57c-3.38,0-4,3.13-2.29,4.06a7.24,7.24,0,0,0,2.23.73l3.63,1a4,4,0,0,1,2.51,3.29c.14,2.94-2.63,4.87-5.79,4.77-1.94-.07-3.4-.31-4.71-1.86a4.67,4.67,0,0,1-1.07-3.27h1.76a3.2,3.2,0,0,0,2.85,3.35,8.12,8.12,0,0,0,1.94.08,3.86,3.86,0,0,0,2.07-.71c1-.81,1.68-2.5-.08-3.71a14.06,14.06,0,0,0-3.07-.95,16.12,16.12,0,0,1-3-.89,2.9,2.9,0,0,1-2-2.69c-.24-2.39,1.37-4.77,5-4.77a7.36,7.36,0,0,1,3.56.77,4,4,0,0,1,2.06,3.77Z"/><path class="cls-2" d="M69.55,111.08H79.76v1.67H71.44v4.64h8v1.67h-8v5H80.1v1.68H69.55Z"/><path class="cls-2" d="M92.59,125.78,85.14,114v11.79H83.25v-14.7h2.23L92.85,123v-11.9h1.89v14.7Z"/><path class="cls-2" d="M104.93,118h6.18v7.89H109.9l-.45-1.82a6.94,6.94,0,0,1-5.18,2.21,7.38,7.38,0,0,1-4-1.42,8.2,8.2,0,0,1-2.58-6.23,8.35,8.35,0,0,1,2.58-6.26,7.69,7.69,0,0,1,4.52-1.51,6.39,6.39,0,0,1,3.15.58,5.2,5.2,0,0,1,3,4.1h-1.86c-.1-1.23-1.56-3-4.28-3a5,5,0,0,0-3.57,1.42,7.46,7.46,0,0,0,0,9.26,5,5,0,0,0,3.57,1.41,4.61,4.61,0,0,0,2.59-.71,4.3,4.3,0,0,0,2-4.23h-4.48Z"/><path class="cls-2" d="M120.73,111.08h6.45a3.86,3.86,0,0,1,3.91,3.78,3.32,3.32,0,0,1-1.9,3.13,3.65,3.65,0,0,1,2.52,3.57,4.15,4.15,0,0,1-3.73,4.22h-7.25Zm1.9,6.31h3.9c2.16,0,2.64-1.24,2.64-2.18s-.42-2.46-3.33-2.46h-3.21Zm0,6.71h4.75a2.43,2.43,0,0,0,2.48-2.64c0-2.14-1.76-2.4-3.53-2.4h-3.7Z"/><path class="cls-2" d="M136.53,111.08v10.48c0,1.17.87,3.07,3.75,3.07s3.75-1.9,3.75-3.07V111.08h1.91v10.6c0,1.6-1.26,4.57-5.66,4.57s-5.64-3-5.64-4.57v-10.6Z"/><path class="cls-2" d="M150,111.08h1.9v14.7H150Z"/><path class="cls-2" d="M157.64,111.08v13h7.25v1.68h-9.14v-14.7Z"/><path class="cls-2" d="M167.66,125.78v-14.7h5.67c3.11,0,5.59,2.19,5.93,6,.25,2.64-.18,4.89-1.49,6.52a5.17,5.17,0,0,1-3.41,2.2Zm1.9-13V124.1h4.12a3.22,3.22,0,0,0,1.51-.32,4.66,4.66,0,0,0,1.79-2.3,15.11,15.11,0,0,0,.45-3,7.07,7.07,0,0,0-.81-3.86,3.86,3.86,0,0,0-3.47-1.87Z"/><path class="cls-2" d="M182.77,111.08H193v1.67h-8.31v4.64h8v1.67h-8v5h8.65v1.68H182.77Z"/><path class="cls-2" d="M196.81,111.08h6.58c2.28,0,4.5.42,4.68,3.75.1,1.91-.49,2.6-1.93,3.68,1.51,1,1.67,1.34,1.71,3.76,0,1.85.12,2.54.78,3v.49h-2.27a6.17,6.17,0,0,1-.43-1.86c-.16-1.73.69-4.45-2.4-4.45h-4.82v6.31h-1.9Zm1.9,1.67v5h4.74c1.25,0,2.5-.35,2.71-2.24.25-2.5-1.56-2.8-2.73-2.8Z"/><path class="cls-2" d="M218,111.08h6.15a3.91,3.91,0,0,1,4.41,3.56c.43,3.57-2.26,4.94-3.81,4.9h-4.86v6.24H218Zm1.89,6.79h4.82a2.6,2.6,0,0,0-.58-5.12h-4.24Z"/><path class="cls-2" d="M235.39,112.75h-4.84v-1.67h11.54v1.67h-4.81v13h-1.89Z"/><path class="cls-2" d="M244.79,111.08H255v1.67h-8.31v4.64h8v1.67h-8v5h8.65v1.68H244.79Z"/><path class="cls-2" d="M266.59,111.08v13h7.23v1.68h-9.14v-14.7Z"/><path class="cls-2" d="M277.86,112.75H273v-1.67h11.54v1.67h-4.79v13h-1.9Z"/><path class="cls-2" d="M287.23,125.78v-14.7h5.67c3.11,0,5.59,2.19,5.93,6,.24,2.64-.18,4.89-1.49,6.52a5.17,5.17,0,0,1-3.41,2.2Zm1.89-13V124.1h4.12a3.23,3.23,0,0,0,1.52-.32,4.66,4.66,0,0,0,1.79-2.3,15.27,15.27,0,0,0,.44-3,7,7,0,0,0-.8-3.86,3.86,3.86,0,0,0-3.47-1.87Z"/></g></g></svg>